<svg id="visual" viewBox="0 0 540 960" width="540" height="960" xmlns="http://www.w3.org/2000/svg" xmlns:xlink="http://www.w3.org/1999/xlink" version="1.1"><rect x="0" y="0" width="540" height="960" fill="#99d98c"></rect><path d="M312 0L314 0L314 120L414 120L414 240L367 240L367 360L427 360L427 480L321 480L321 600L412 600L412 720L312 720L312 840L318 840L318 960L0 960L0 840L0 840L0 720L0 720L0 600L0 600L0 480L0 480L0 360L0 360L0 240L0 240L0 120L0 120L0 0L0 0Z" fill="#99d98c"></path><path d="M314 0L216 0L216 120L301 120L301 240L333 240L333 360L259 360L259 480L287 480L287 600L325 600L325 720L295 720L295 840L225 840L225 960L0 960L0 840L0 840L0 720L0 720L0 600L0 600L0 480L0 480L0 360L0 360L0 240L0 240L0 120L0 120L0 0L0 0Z" fill="#bce6b2"></path><path d="M163 0L203 0L203 120L205 120L205 240L189 240L189 360L176 360L176 480L201 480L201 600L206 600L206 720L208 720L208 840L231 840L231 960L0 960L0 840L0 840L0 720L0 720L0 600L0 600L0 480L0 480L0 360L0 360L0 240L0 240L0 120L0 120L0 0L0 0Z" fill="#def2d8"></path><path d="M147 0L78 0L78 120L119 120L119 240L87 240L87 360L112 360L112 480L133 480L133 600L79 600L79 720L68 720L68 840L144 840L144 960L0 960L0 840L0 840L0 720L0 720L0 600L0 600L0 480L0 480L0 360L0 360L0 240L0 240L0 120L0 120L0 0L0 0Z" fill="#ffffff"></path></svg>